<svg xmlns="http://www.w3.org/2000/svg" viewBox="0 0 400 400"><defs><style>.cls-1{fill:#333;}.cls-2{fill:#666766;}.cls-3{fill:#991b1e;}.cls-4{fill:#cccccb;}</style></defs><g id="Layer_2" data-name="Layer 2"><g id="Layer_1-2" data-name="Layer 1"><rect class="cls-1" width="400" height="400"/><path class="cls-2" d="M247.42,256.09a1.83,1.83,0,0,1,.23,1.62l-18.13,67.64a16.85,16.85,0,0,1-2.6,5.45,22.52,22.52,0,0,1-4.2,4.5,19,19,0,0,1-5.24,3,16.25,16.25,0,0,1-5.75,1.08H151.17A12,12,0,0,1,146,338.3a9.57,9.57,0,0,1-3.69-3,9.87,9.87,0,0,1-1.79-4.5,13.32,13.32,0,0,1,.38-5.45L159,257.71a2.75,2.75,0,0,1,2.89-2.28h16.55c1.52,0,2.08.76,1.67,2.28L163.71,319H177l16.42-61.28a3.06,3.06,0,0,1,1.09-1.62,2.86,2.86,0,0,1,1.8-.66h15.11a1.66,1.66,0,0,1,1.44.66,1.83,1.83,0,0,1,.23,1.62L196.69,319h13.43l16.42-61.28a3.13,3.13,0,0,1,1-1.62,2.63,2.63,0,0,1,1.74-.66H246A1.66,1.66,0,0,1,247.42,256.09Z"/><path class="cls-2" d="M308.89,255.43a11.37,11.37,0,0,1,5.15,1.14,10,10,0,0,1,3.63,3,10.4,10.4,0,0,1,1.81,4.44,12.61,12.61,0,0,1-.32,5.45l-8.52,31.78a16.76,16.76,0,0,1-2.6,5.45,20.89,20.89,0,0,1-4.19,4.44,20.23,20.23,0,0,1-5.24,3,15.55,15.55,0,0,1-5.76,1.14H266.11a3,3,0,0,0-1.78.6,2.76,2.76,0,0,0-1.08,1.56L258,337.1a2.74,2.74,0,0,1-2.88,2.28H238.54c-1.52,0-2.07-.76-1.66-2.28l21.27-79.39a2.75,2.75,0,0,1,2.89-2.28Zm-17.16,40.3,5.69-21.23H274l-5.69,21.23Z"/><path class="cls-3" d="M127,224.88a80.81,80.81,0,0,1,22-55.48,3.51,3.51,0,0,0,.21-4.64l-7.43-9.08a3.48,3.48,0,0,0-5.17-.27,99.29,99.29,0,0,0-26.55,87.85,3.51,3.51,0,0,0,4.48,2.75l11.21-3.48a3.51,3.51,0,0,0,2.39-4A80.88,80.88,0,0,1,127,224.88Z"/><path class="cls-3" d="M100.14,269.36,89.34,273a3.49,3.49,0,0,0-2.11,4.68,132.33,132.33,0,0,0,25.85,38.61,3.49,3.49,0,0,0,5.13-.16l7.52-8.58a3.49,3.49,0,0,0-.13-4.71,114,114,0,0,1-21.13-31.58A3.51,3.51,0,0,0,100.14,269.36Z"/><path class="cls-3" d="M98.13,129.58A145.51,145.51,0,0,1,183.39,81.4a3.51,3.51,0,0,0,2.91-3.78L185.18,66a3.51,3.51,0,0,0-4-3.14,164.23,164.23,0,0,0-97.71,55.21,3.5,3.5,0,0,0,.6,5.07l9.36,7A3.5,3.5,0,0,0,98.13,129.58Z"/><path class="cls-3" d="M208.11,79.28A144.88,144.88,0,0,1,300,112a3.48,3.48,0,0,0,4,.28l10.5-6.47a3.48,3.48,0,0,0,.48-5.6A163.54,163.54,0,0,0,208.11,60.62c-1.55,0-3.09,0-4.63.07a3.49,3.49,0,0,0-3.35,3.84l1.13,11.67a3.48,3.48,0,0,0,3.58,3.13C205.93,79.3,207,79.28,208.11,79.28Z"/><path class="cls-3" d="M242.69,149.94l11.87-7.31a3.52,3.52,0,0,0-.19-6.09A99.44,99.44,0,0,0,154.29,141a3.51,3.51,0,0,0-.86,5.19l7.41,9.07a3.53,3.53,0,0,0,4.61.72,80.78,80.78,0,0,1,74.05-5.78A3.49,3.49,0,0,0,242.69,149.94Z"/><path class="cls-3" d="M200.64,111.55a113,113,0,0,1,70.12,18.68,3.5,3.5,0,0,0,3.83.05L285,123.61a3.5,3.5,0,0,0,.14-5.8,131.14,131.14,0,0,0-77-24.88c-72.76,0-132,59.19-132,132A131.23,131.23,0,0,0,80,256.36a3.49,3.49,0,0,0,4.51,2.43l10.82-3.66A3.5,3.5,0,0,0,97.58,251a113.64,113.64,0,0,1-2.26-39.44C101.62,157.48,146.33,115.06,200.64,111.55Z"/><path class="cls-4" d="M209.34,243c-15.59,0-23.85-12.61-17.92-26.39,2.54-5.92,7-10.11,12.33-13.51Q256.67,169.6,309.56,136c1-.62,1.94-1.28,3-1.83,3.52-1.92,7.47-3.76,10.32.37,2.32,3.36.24,6.57-2.42,9.18-3.88,3.81-7.68,7.7-11.56,11.5q-40.39,39.45-80.79,78.9C222.6,239.51,216.64,243.36,209.34,243Z"/></g></g></svg>